<svg xmlns="http://www.w3.org/2000/svg">
  <symbol id="actMode" fill="none" viewBox="0 0 24 24">
    <path d="M14 1H5C3.89543 1 3 1.89543 3 3V21C3 22.1046 3.89543 23 5 23H19C20.1046 23 21 22.1046 21 21V8M14 1V6C14 7.10457 14.8954 8 16 8H21M14 1L21 8" />
    <path d="M10.6645 13.785L10.6645 13.785L10.6658 13.7832C10.9472 13.4126 11.306 13.234 11.7627 13.234C12.2195 13.234 12.5782 13.4126 12.8596 13.7832L12.8596 13.7832L12.861 13.785C13.1423 14.1486 13.3007 14.694 13.3007 15.456C13.3007 15.9611 13.2279 16.3796 13.091 16.7183L13.0909 16.7183L13.0899 16.7209C12.9603 17.0522 12.7787 17.2947 12.5512 17.4622C12.3344 17.6197 12.0754 17.702 11.7627 17.702C11.4515 17.702 11.1879 17.6204 10.9623 17.4622C10.7425 17.2946 10.5607 17.0516 10.423 16.7196C10.2935 16.38 10.2247 15.961 10.2247 15.456C10.2247 14.694 10.3831 14.1486 10.6645 13.785ZM10.7979 13.9146L10.7978 13.9146L10.7954 13.9185C10.5655 14.2825 10.4687 14.808 10.4687 15.456C10.4687 16.0983 10.5662 16.6238 10.7924 17.0006L10.7923 17.0007L10.7963 17.0069C11.0306 17.3725 11.3541 17.59 11.7627 17.59C12.1786 17.59 12.5013 17.373 12.7216 16.9998C12.9474 16.623 13.0447 16.0978 13.0447 15.456C13.0447 14.8092 12.9484 14.2845 12.7194 13.9205C12.4976 13.5553 12.175 13.346 11.7627 13.346C11.3571 13.346 11.0336 13.5563 10.7979 13.9146ZM16.1485 16.977L16.1485 16.977L16.1498 16.9752C16.4312 16.6046 16.79 16.426 17.2467 16.426C17.7035 16.426 18.0622 16.6046 18.3436 16.9752L18.3436 16.9752L18.345 16.977C18.6263 17.3406 18.7847 17.886 18.7847 18.648C18.7847 19.1531 18.7119 19.5716 18.575 19.9103L18.5749 19.9103L18.5739 19.9129C18.4443 20.2442 18.2627 20.4867 18.0352 20.6542C17.8184 20.8117 17.5594 20.894 17.2467 20.894C16.9355 20.894 16.6719 20.8124 16.4463 20.6542C16.2265 20.4866 16.0447 20.2436 15.907 19.9116C15.7775 19.572 15.7087 19.153 15.7087 18.648C15.7087 17.886 15.8671 17.3406 16.1485 16.977ZM16.2819 17.1066L16.2818 17.1066L16.2794 17.1105C16.0495 17.4745 15.9527 18 15.9527 18.648C15.9527 19.2903 16.0502 19.8158 16.2764 20.1926L16.2763 20.1927L16.2803 20.1989C16.5146 20.5645 16.8381 20.782 17.2467 20.782C17.6626 20.782 17.9852 20.565 18.2056 20.1919C18.4314 19.815 18.5287 19.2898 18.5287 18.648C18.5287 18.0012 18.4324 17.4765 18.2034 17.1125C17.9816 16.7473 17.659 16.538 17.2467 16.538C16.8411 16.538 16.5176 16.7483 16.2819 17.1066ZM12.407 20.894L16.4849 13.234H16.5904L12.5126 20.894H12.407Z" stroke-width="0.5" />
  </symbol>
  <symbol id="add" fill="none" viewBox="0 0 24 24">
    <rect x="19.5" y="12.5" width="15" height="1" rx="0.5" transform="rotate(-180 19.5 12.5)" fill="black" />
    <rect x="11.5" y="19.5" width="15" height="1" rx="0.5" transform="rotate(-90 11.5 19.5)" fill="black" />
  </symbol>
  <symbol id="addDirectory" fill="none" viewBox="0 0 24 24">
    <path d="M3 3C3 1.89543 3.89543 1 5 1H13C14.1046 1 15 1.89543 15 3V8.85126C15 9.56259 15.3778 10.2204 15.9923 10.5788L20.0077 12.9212C20.6222 13.2796 21 13.9374 21 14.6487V21C21 22.1046 20.1046 23 19 23H5C3.89543 23 3 22.1046 3 21V3Z" />
    <path d="M12.5 1H17.5C18.6046 1 19.5 1.89543 19.5 3V12.5" />
    <rect x="11.25" y="16.75" width="7.5" height="0.5" rx="0.25" stroke-width="0.5" />
    <rect x="14.75" y="20.75" width="7.5" height="0.5" rx="0.25" transform="rotate(-90 14.75 20.75)" stroke-width="0.5" />
  </symbol>
  <symbol id="addDucument" fill="none" viewBox="0 0 24 24">
    <path d="M14 1H5C3.89543 1 3 1.89543 3 3V21C3 22.1046 3.89543 23 5 23H19C20.1046 23 21 22.1046 21 21V8M14 1V6C14 7.10457 14.8954 8 16 8H21M14 1L21 8" />
    <rect x="11.25" y="16.75" width="7.5" height="0.5" rx="0.25" stroke-width="0.5" />
    <rect x="14.75" y="20.75" width="7.5" height="0.5" rx="0.25" transform="rotate(-90 14.75 20.75)" stroke-width="0.5" />
  </symbol>
  <symbol id="addItem" fill="none" viewBox="0 0 24 24">
    <path d="M3.30598 3.10799V15.5H2.47998V2.06799H11.71V15.5H10.884V3.10799V2.60799H10.384H3.80598H3.30598V3.10799Z" />
    <rect x="15.25" y="18.75" width="7.5" height="0.5" rx="0.25" stroke-width="0.5" />
    <rect x="18.75" y="22.75" width="7.5" height="0.5" rx="0.25" transform="rotate(-90 18.75 22.75)" stroke-width="0.5" />
  </symbol>
  <symbol id="addSection" fill="none" viewBox="0 0 24 24">
    <path d="M10.4109 8.04033C10.0321 8.59588 9.49058 9.02924 8.76319 9.33382C8.0438 9.62652 7.18701 9.77999 6.18198 9.77999H3.80598H3.30598V10.28V15.5H2.47998V2.06799H6.09398C7.13813 2.06799 8.02663 2.20223 8.76872 2.45859L8.7687 2.45865L8.77646 2.46119C9.49557 2.69654 10.0354 3.07958 10.4217 3.60292C10.7928 4.10571 11.006 4.82517 11.006 5.81399C11.006 6.75135 10.796 7.48132 10.4122 8.03834L10.4109 8.04033ZM3.30598 8.78399V9.28399H3.80598H5.96198C7.26905 9.28399 8.33611 9.03649 9.06718 8.44935C9.83593 7.84406 10.18 6.92962 10.18 5.81399C10.18 4.67401 9.82148 3.75537 8.97926 3.23539C8.22965 2.74964 7.17041 2.54199 5.87398 2.54199H3.80598H3.30598V3.04199V8.78399Z" />
    <rect x="15.25" y="18.75" width="7.5" height="0.5" rx="0.25" stroke-width="0.5" />
    <rect x="18.75" y="22.75" width="7.5" height="0.5" rx="0.25" transform="rotate(-90 18.75 22.75)" stroke-width="0.5" />
  </symbol>
  <symbol id="addTitle" fill="none" viewBox="0 0 24 24">
    <path d="M2.51906 14.1125L2.882 13.7022C3.4372 14.187 4.02032 14.5486 4.63273 14.775L4.63268 14.7751L4.64493 14.7793C5.38955 15.0328 6.17763 15.158 7.00606 15.158C7.6957 15.158 8.33589 15.0374 8.91902 14.7875L8.91904 14.7876L8.92513 14.7849C9.52214 14.5195 10.0077 14.1445 10.36 13.6519C10.7378 13.1295 10.9161 12.5101 10.9161 11.82C10.9161 10.7465 10.5193 9.88754 9.67395 9.35304C8.88518 8.83992 7.81482 8.61396 6.52206 8.61396H5.39406V8.20596H6.19206C7.44246 8.20596 8.45873 7.99951 9.13378 7.48866L9.13378 7.48866L9.1354 7.48743C9.83642 6.95244 10.1681 6.17787 10.1681 5.24196C10.1681 4.36213 9.84913 3.63248 9.1796 3.12862C8.5459 2.63713 7.75696 2.40996 6.85206 2.40996C6.1154 2.40996 5.42436 2.54622 4.78516 2.82435C4.3371 3.01326 3.91899 3.25048 3.53153 3.53563L3.18526 3.1264C3.57457 2.79757 4.04067 2.51049 4.5887 2.26794C5.29929 1.95983 6.0666 1.80396 6.89606 1.80396C7.75216 1.80396 8.48259 1.94204 9.09828 2.20403C9.71321 2.4657 10.17 2.82861 10.491 3.28543L10.4909 3.28547L10.4962 3.29269C10.8191 3.73523 10.9941 4.29436 10.9941 4.99996C10.9941 5.70516 10.8192 6.27449 10.4925 6.73435C10.1525 7.21284 9.70822 7.56431 9.14874 7.79318L8.83806 7.92028V8.25596V8.34396V8.7561L9.24263 8.83476C9.70101 8.92389 10.1098 9.10064 10.4748 9.36493L10.4748 9.36498L10.4813 9.36957C10.8531 9.62983 11.1533 9.97161 11.3822 10.4039L11.3821 10.4039L11.3851 10.4094C11.601 10.8052 11.7201 11.2984 11.7201 11.908C11.7201 12.7433 11.5095 13.4304 11.1086 13.9942L11.1073 13.996C10.7078 14.563 10.1724 14.9979 9.48781 15.3007C8.79442 15.6074 8.0281 15.764 7.18206 15.764C6.11488 15.764 5.18491 15.6168 4.38461 15.3326C3.73606 15.0858 3.11369 14.6833 2.51906 14.1125Z" />
    <rect x="15.25" y="18.75" width="7.5" height="0.5" rx="0.25" stroke-width="0.5" />
    <rect x="18.75" y="22.75" width="7.5" height="0.5" rx="0.25" transform="rotate(-90 18.75 22.75)" stroke-width="0.5" />
  </symbol>
  <symbol id="anchor" fill="none" viewBox="0 0 24 24">
    <path d="M6.37912 10.5498L4.22181 12.7071C2.26919 14.6598 2.26919 17.8256 4.22181 19.7782V19.7782C6.17443 21.7308 9.34026 21.7308 11.2929 19.7782L13.3901 17.681M10.6099 6.31906L12.7071 4.22186C14.6597 2.26924 17.8255 2.26924 19.7782 4.22186V4.22186C21.7308 6.17448 21.7308 9.34031 19.7782 11.2929L17.6208 13.4503" />
    <rect x="7.05021" y="16.5962" width="13.5" height="0.5" rx="0.25" transform="rotate(-45 7.05021 16.5962)" stroke-width="0.5" />
  </symbol>
  <symbol id="arrow" fill="none" viewBox="0 0 24 24">
    <path d="M8.48528 3.51472L16.2635 11.2929C16.654 11.6834 16.654 12.3166 16.2635 12.7071L8.48528 20.4853" stroke-width="2" stroke-linecap="round" />
  </symbol>
  <symbol id="base" fill="none" viewBox="0 0 24 24">
    <g clip-path="url(#clip0_156_58)">
      <rect x="0.5" y="0.5" width="6" height="23" rx="0.5" />
      <rect x="9" y="0.5" width="6" height="23" rx="0.5" />
      <rect x="17.5" y="0.5" width="6" height="23" rx="0.5" />
      <rect x="3" y="4.5" width="1" height="6" />
      <rect x="11.5" y="4.5" width="1" height="6" />
      <rect x="20" y="4.5" width="1" height="6" />
      <circle cx="3.5" cy="20" r="0.5" />
      <circle cx="12" cy="20" r="0.5" />
      <circle cx="20.5" cy="20" r="0.5" />
    </g>
    <defs>
      <clipPath id="clip0_156_58">
        <rect width="24" height="24" fill="white" />
      </clipPath>
    </defs>
  </symbol>
  <symbol id="close" fill="none" viewBox="0 0 24 24">
    <rect x="19.071" y="4.22188" width="1" height="21" rx="0.5" transform="rotate(45 19.071 4.22188)" />
    <rect x="4.22188" y="4.92896" width="1" height="21" rx="0.5" transform="rotate(-45 4.22188 4.92896)" />
  </symbol>
  <symbol id="construction" fill="none" viewBox="0 0 24 24">
    <g clip-path="url(#clip0_156_48)">
      <path d="M11 20.5H0.5V1.5H12.5V13" />
      <rect x="3.75" y="0.25" width="5.5" height="0.5" stroke-width="0.5" />
      <rect x="3.375" y="4.625" width="1.25" height="1.25" stroke-width="1.25" />
      <rect x="3.375" y="8.625" width="1.25" height="1.25" stroke-width="1.25" />
      <rect x="3.375" y="12.625" width="1.25" height="1.25" stroke-width="1.25" />
      <rect x="8.375" y="4.625" width="1.25" height="1.25" stroke-width="1.25" />
      <rect x="8.375" y="8.625" width="1.25" height="1.25" stroke-width="1.25" />
      <rect x="8.375" y="12.625" width="1.25" height="1.25" stroke-width="1.25" />
      <rect x="14.125" y="16.625" width="1.25" height="1.25" stroke-width="1.25" />
      <rect x="19.625" y="16.625" width="1.25" height="1.25" stroke-width="1.25" />
      <rect x="20.375" y="9.375" width="0.75" height="2.25" stroke-width="0.75" />
      <path d="M6 17.5H7V19.5H6V17.5Z" />
      <path d="M17.5 9.615L23.5 13.9121V23.5H11.5V13.9121L17.5 9.615Z" />
      <rect x="17" y="20.5" width="1" height="2" />
    </g>
    <defs>
      <clipPath id="clip0_156_48">
        <rect width="24" height="24" fill="white" />
      </clipPath>
    </defs>
  </symbol>
  <symbol id="copy" fill="none" viewBox="0 0 24 24">
    <g clip-path="url(#clip0_156_36)">
      <path d="M10.7778 5H3C1.89543 5 1 5.89543 1 7V21C1 22.1046 1.89543 23 3 23H15C16.1046 23 17 22.1046 17 21V10.7273M10.7778 5V8.72727C10.7778 9.83184 11.6732 10.7273 12.7778 10.7273H17M10.7778 5L17 10.7273" />
      <path d="M17.1667 1H10C8.89543 1 8 1.89543 8 3V5M17.1667 1V5.04545C17.1667 6.15002 18.0621 7.04545 19.1667 7.04545H23M17.1667 1L23 7.04545M23 7.04545V18C23 19.1046 22.1046 20 21 20H17.1667" />
    </g>
    <defs>
      <clipPath id="clip0_156_36">
        <rect width="24" height="24" fill="white" />
      </clipPath>
    </defs>
  </symbol>
  <symbol id="cut" fill="none" viewBox="0 0 24 24">
    <g clip-path="url(#clip0_156_38)">
      <circle cx="12.05" cy="21" r="2" stroke-width="2" />
      <path d="M4.63312 14.9225C3.75921 15.1731 2.92851 15.1225 2.30394 14.8844C1.67973 14.6464 1.32019 14.2529 1.19806 13.8269C1.07592 13.401 1.17229 12.8767 1.57553 12.3441C1.97901 11.8112 2.65666 11.3281 3.53057 11.0775C4.40447 10.8269 5.23517 10.8775 5.85974 11.1156C6.48395 11.3536 6.84349 11.7472 6.96563 12.1731C7.08776 12.599 6.99139 13.1233 6.58815 13.6559C6.18467 14.1888 5.50702 14.6719 4.63312 14.9225Z" stroke-width="2" />
      <path d="M5.03767 14.2957L22.9749 9.48943L22.1998 10.7324L5.29648 15.2616L5.03767 14.2957Z" />
      <path d="M9.72464 20.0478L14.0185 2.82588L15.2513 2.01507L10.6949 20.2897L9.72464 20.0478Z" />
    </g>
    <defs>
      <clipPath id="clip0_156_38">
        <rect width="24" height="24" fill="white" />
      </clipPath>
    </defs>
  </symbol>
  <symbol id="delete" fill="none" viewBox="0 0 24 24">
    <path d="M4 5H20M4 5V21C4 22.1046 4.89543 23 6 23H18C19.1046 23 20 22.1046 20 21V5M4 5H2M20 5H22M8 9.04878V19M16 9.04878V19M12 9.04878V19M8 5V2C8 1.44772 8.44772 1 9 1H12H15C15.5523 1 16 1.44772 16 2V5" stroke-linecap="round" />
  </symbol>
  <symbol id="directory" fill="none" viewBox="0 0 24 24">
    <path d="M3 3C3 1.89543 3.89543 1 5 1H13C14.1046 1 15 1.89543 15 3V8.85126C15 9.56259 15.3778 10.2204 15.9923 10.5788L20.0077 12.9212C20.6222 13.2796 21 13.9374 21 14.6487V21C21 22.1046 20.1046 23 19 23H5C3.89543 23 3 22.1046 3 21V3Z" />
    <path d="M12.5 1H17.5C18.6046 1 19.5 1.89543 19.5 3V13" />
  </symbol>
  <symbol id="documentPropirties" fill="none" viewBox="0 0 24 24">
    <path d="M14 1H5C3.89543 1 3 1.89543 3 3V21C3 22.1046 3.89543 23 5 23H19C20.1046 23 21 22.1046 21 21V8M14 1V6C14 7.10457 14.8954 8 16 8H21M14 1L21 8" />
    <path d="M12.6886 20.25L10.8605 17L12.6886 13.75H16.3114L18.1395 17L16.3114 20.25H12.6886Z" stroke-width="1.5" />
    <circle cx="14.5" cy="17" r="2.5" />
  </symbol>
  <symbol id="doument" fill="none" viewBox="0 0 24 24">
    <path d="M14 1H5C3.89543 1 3 1.89543 3 3V21C3 22.1046 3.89543 23 5 23H19C20.1046 23 21 22.1046 21 21V8M14 1V6C14 7.10457 14.8954 8 16 8H21M14 1L21 8" />
  </symbol>
  <symbol id="export" fill="none" viewBox="0 0 24 24">
    <path d="M4 15V20C4 20.5523 4.44772 21 5 21H19C19.5523 21 20 20.5523 20 20V15" stroke-linecap="round" />
    <rect x="11.75" y="2.25" width="0.5" height="13.5" rx="0.25" stroke-width="0.5" />
    <path d="M16.7631 7.25L12.3703 2.40816C12.1718 2.18944 11.8281 2.18944 11.6296 2.40816L7.23682 7.25" stroke-linecap="round" />
  </symbol>
  <symbol id="exportToAPRS" fill="none" viewBox="0 0 24 24">
    <path d="M15 1H6C4.89543 1 4 1.89543 4 3V10M15 1V6C15 7.10457 15.8954 8 17 8H22M15 1L22 8M22 8V21C22 22.1046 21.1046 23 20 23H6C4.89543 23 4 22.1046 4 21V20" />
    <path d="M0.834183 17.8L2.94318 11.568H3.83618L5.94518 17.8H5.10918L4.01668 14.3135C3.90268 13.9652 3.79502 13.62 3.69368 13.278C3.59235 12.9297 3.49102 12.575 3.38968 12.214H3.35168C3.25668 12.575 3.15852 12.9297 3.05718 13.278C2.95585 13.62 2.84818 13.9652 2.73418 14.3135L1.63218 17.8H0.834183ZM1.93618 15.9V15.273H4.81468V15.9H1.93618ZM6.25816 17.8V11.568H10.6757V17.8H9.88716V12.233H7.04666V17.8H6.25816ZM11.8112 17.8V11.568H13.5877C14.0564 11.568 14.4649 11.6282 14.8132 11.7485C15.1615 11.8625 15.4339 12.0525 15.6302 12.3185C15.8265 12.5845 15.9247 12.9455 15.9247 13.4015C15.9247 13.8385 15.8265 14.1995 15.6302 14.4845C15.4402 14.7632 15.171 14.9754 14.8227 15.121C14.4807 15.2604 14.0817 15.33 13.6257 15.33H12.5997V17.8H11.8112ZM12.5997 14.684H13.5307C14.0754 14.684 14.4775 14.5795 14.7372 14.3705C15.0032 14.1615 15.1362 13.8385 15.1362 13.4015C15.1362 12.9519 14.9969 12.6415 14.7182 12.4705C14.4459 12.2932 14.0374 12.2045 13.4927 12.2045H12.5997V14.684ZM18.9876 17.914C18.4682 17.914 17.9996 17.7874 17.5816 17.534C17.1699 17.2744 16.8469 16.9039 16.6126 16.4225C16.3782 15.9412 16.2611 15.3617 16.2611 14.684C16.2611 14.1837 16.3276 13.734 16.4606 13.335C16.5999 12.936 16.7962 12.5972 17.0496 12.3185C17.3029 12.0335 17.5942 11.8182 17.9236 11.6725C18.2592 11.5269 18.6266 11.454 19.0256 11.454C19.3992 11.454 19.7317 11.53 20.0231 11.682C20.3207 11.834 20.5582 12.0145 20.7356 12.2235L20.3081 12.708C20.1434 12.5307 19.9534 12.3945 19.7381 12.2995C19.5291 12.1982 19.2947 12.1475 19.0351 12.1475C18.6487 12.1475 18.3067 12.252 18.0091 12.461C17.7177 12.6637 17.4897 12.955 17.3251 13.335C17.1604 13.7087 17.0781 14.152 17.0781 14.665C17.0781 15.1907 17.1572 15.6435 17.3156 16.0235C17.4739 16.4035 17.7019 16.698 17.9996 16.907C18.2972 17.1097 18.6456 17.211 19.0446 17.211C19.3359 17.211 19.5956 17.1572 19.8236 17.0495C20.0579 16.9355 20.2701 16.7709 20.4601 16.5555L20.8781 17.021C20.6311 17.306 20.3556 17.5277 20.0516 17.686C19.7476 17.838 19.3929 17.914 18.9876 17.914Z" fill="black" />
  </symbol>
  <symbol id="exportToGGE" fill="none" viewBox="0 0 24 24">
    <path d="M15 1H6C4.89543 1 4 1.89543 4 3V10M15 1V6C15 7.10457 15.8954 8 17 8H22M15 1L22 8M22 8V21C22 22.1046 21.1046 23 20 23H6C4.89543 23 4 22.1046 4 21V20" />
    <path d="M2.21624 18.5V11.612H6.18524V12.3575H3.08774V18.5H2.21624ZM7.44573 18.5V11.612H11.4147V12.3575H8.31723V18.5H7.44573ZM14.2817 18.626C13.8127 18.626 13.3962 18.5385 13.0322 18.3635C12.6752 18.1885 12.3532 17.9435 12.0662 17.6285L12.5492 17.1035C12.7802 17.3485 13.0322 17.5375 13.3052 17.6705C13.5852 17.7965 13.9037 17.8595 14.2607 17.8595C14.8977 17.8595 15.3982 17.6215 15.7622 17.1455C16.1262 16.6625 16.3082 15.945 16.3082 14.993C16.3082 14.111 16.1297 13.4355 15.7727 12.9665C15.4157 12.4905 14.9082 12.2525 14.2502 12.2525C13.9492 12.2525 13.6657 12.3085 13.3997 12.4205C13.1337 12.5255 12.9027 12.6795 12.7067 12.8825L12.2552 12.3365C12.4792 12.0985 12.7662 11.899 13.1162 11.738C13.4662 11.57 13.8547 11.486 14.2817 11.486C14.8627 11.486 15.3702 11.6225 15.8042 11.8955C16.2382 12.1615 16.5742 12.5605 16.8122 13.0925C17.0572 13.6245 17.1797 14.279 17.1797 15.056C17.1797 15.84 17.0537 16.498 16.8017 17.03C16.5567 17.555 16.2137 17.954 15.7727 18.227C15.3387 18.493 14.8417 18.626 14.2817 18.626ZM13.4102 15.2555V14.51H16.7597V15.2555H13.4102Z" fill="black" />
  </symbol>
  <symbol id="exportToPDF" fill="none" viewBox="0 0 24 24">
    <path d="M15 1H6C4.89543 1 4 1.89543 4 3V10M15 1V6C15 7.10457 15.8954 8 17 8H22M15 1L22 8M22 8V21C22 22.1046 21.1046 23 20 23H6C4.89543 23 4 22.1046 4 21V20" />
    <path d="M1.14715 18.5V11.612H3.11065C3.62865 11.612 4.08015 11.6785 4.46515 11.8115C4.85015 11.9375 5.15115 12.1475 5.36815 12.4415C5.58515 12.7355 5.69365 13.1345 5.69365 13.6385C5.69365 14.1215 5.58515 14.5205 5.36815 14.8355C5.15815 15.1435 4.86065 15.378 4.47565 15.539C4.09765 15.693 3.65665 15.77 3.15265 15.77H2.01865V18.5H1.14715ZM2.01865 15.056H3.04765C3.64965 15.056 4.09415 14.9405 4.38115 14.7095C4.67515 14.4785 4.82215 14.1215 4.82215 13.6385C4.82215 13.1415 4.66815 12.7985 4.36015 12.6095C4.05915 12.4135 3.60765 12.3155 3.00565 12.3155H2.01865V15.056ZM7.09441 18.5V11.612H8.81641C9.52341 11.612 10.1184 11.745 10.6014 12.011C11.0844 12.277 11.4484 12.6655 11.6934 13.1765C11.9454 13.6805 12.0714 14.2965 12.0714 15.0245C12.0714 15.7525 11.9454 16.379 11.6934 16.904C11.4484 17.422 11.0879 17.8175 10.6119 18.0905C10.1359 18.3635 9.55141 18.5 8.85841 18.5H7.09441ZM7.96591 17.786H8.75341C9.29241 17.786 9.74041 17.6775 10.0974 17.4605C10.4544 17.2365 10.7204 16.9215 10.8954 16.5155C11.0704 16.1095 11.1579 15.6125 11.1579 15.0245C11.1579 14.4505 11.0704 13.9605 10.8954 13.5545C10.7204 13.1485 10.4544 12.844 10.0974 12.641C9.74041 12.431 9.29241 12.326 8.75341 12.326H7.96591V17.786ZM13.5544 18.5V11.612H17.5234V12.347H14.4259V14.678H17.0509V15.413H14.4259V18.5H13.5544Z" fill="black" />
  </symbol>
  <symbol id="exportToXLS" fill="none" viewBox="0 0 24 24">
    <path d="M15 1H6C4.89543 1 4 1.89543 4 3V10M15 1V6C15 7.10457 15.8954 8 17 8H22M15 1L22 8M22 8V21C22 22.1046 21.1046 23 20 23H6C4.89543 23 4 22.1046 4 21V20" />
    <path d="M1.2261 18.5L3.2316 14.9405L1.3626 11.612H2.3286L3.2631 13.376C3.3541 13.53 3.4381 13.684 3.5151 13.838C3.5991 13.992 3.6936 14.1705 3.7986 14.3735H3.8406C3.9386 14.1705 4.0226 13.992 4.0926 13.838C4.1696 13.684 4.2501 13.53 4.3341 13.376L5.2476 11.612H6.1716L4.2921 14.9825L6.2976 18.5H5.3316L4.3236 16.6415C4.2326 16.4735 4.1381 16.302 4.0401 16.127C3.9491 15.945 3.8476 15.749 3.7356 15.539H3.6936C3.5956 15.749 3.5011 15.945 3.4101 16.127C3.3261 16.302 3.2386 16.4735 3.1476 16.6415L2.1501 18.5H1.2261ZM7.3969 18.5V11.612H8.2684V17.7545H11.2819V18.5H7.3969ZM14.1785 18.626C13.6885 18.626 13.2405 18.535 12.8345 18.353C12.4285 18.164 12.0715 17.912 11.7635 17.597L12.257 17.03C12.502 17.289 12.7925 17.492 13.1285 17.639C13.4715 17.786 13.825 17.8595 14.189 17.8595C14.644 17.8595 14.9975 17.758 15.2495 17.555C15.5015 17.345 15.6275 17.072 15.6275 16.736C15.6275 16.498 15.575 16.309 15.47 16.169C15.372 16.029 15.2355 15.91 15.0605 15.812C14.8925 15.714 14.7 15.616 14.483 15.518L13.496 15.0875C13.272 14.9895 13.0515 14.867 12.8345 14.72C12.6245 14.573 12.4495 14.3875 12.3095 14.1635C12.1695 13.9325 12.0995 13.649 12.0995 13.313C12.0995 12.963 12.1905 12.6515 12.3725 12.3785C12.5615 12.0985 12.817 11.8815 13.139 11.7275C13.468 11.5665 13.8425 11.486 14.2625 11.486C14.6825 11.486 15.0675 11.563 15.4175 11.717C15.7675 11.871 16.0615 12.0705 16.2995 12.3155L15.827 12.8825C15.61 12.6935 15.372 12.543 15.113 12.431C14.854 12.312 14.5705 12.2525 14.2625 12.2525C13.8775 12.2525 13.566 12.3435 13.328 12.5255C13.097 12.7075 12.9815 12.9525 12.9815 13.2605C12.9815 13.4775 13.0375 13.656 13.1495 13.796C13.2615 13.936 13.405 14.0515 13.58 14.1425C13.762 14.2335 13.944 14.321 14.126 14.405L15.1025 14.825C15.3755 14.944 15.617 15.0805 15.827 15.2345C16.044 15.3885 16.212 15.581 16.331 15.812C16.457 16.043 16.52 16.3265 16.52 16.6625C16.52 17.0265 16.4255 17.359 16.2365 17.66C16.0545 17.954 15.785 18.1885 15.428 18.3635C15.078 18.5385 14.6615 18.626 14.1785 18.626Z" fill="black" />
  </symbol>
  <symbol id="exportToXML" fill="none" viewBox="0 0 24 24">
    <path d="M15 1H6C4.89543 1 4 1.89543 4 3V10M15 1V6C15 7.10457 15.8954 8 17 8H22M15 1L22 8M22 8V21C22 22.1046 21.1046 23 20 23H6C4.89543 23 4 22.1046 4 21V20" />
    <path d="M1.41317 18.5L3.41867 14.9405L1.54967 11.612H2.51567L3.45017 13.376C3.54117 13.53 3.62517 13.684 3.70217 13.838C3.78617 13.992 3.88067 14.1705 3.98567 14.3735H4.02767C4.12567 14.1705 4.20967 13.992 4.27967 13.838C4.35667 13.684 4.43717 13.53 4.52117 13.376L5.43467 11.612H6.35867L4.47917 14.9825L6.48467 18.5H5.51867L4.51067 16.6415C4.41967 16.4735 4.32517 16.302 4.22717 16.127C4.13617 15.945 4.03467 15.749 3.92267 15.539H3.88067C3.78267 15.749 3.68817 15.945 3.59717 16.127C3.51317 16.302 3.42567 16.4735 3.33467 16.6415L2.33717 18.5H1.41317ZM7.26897 18.5V11.612H8.37147L9.67347 15.2975C9.75747 15.5285 9.83447 15.7595 9.90447 15.9905C9.98147 16.2215 10.0585 16.4665 10.1355 16.7255H10.1775C10.2545 16.4665 10.328 16.2215 10.398 15.9905C10.468 15.7595 10.5415 15.5285 10.6185 15.2975L11.9205 11.612H13.0125V18.5H12.1935V14.7095C12.1935 14.5065 12.2005 14.279 12.2145 14.027C12.2285 13.775 12.2425 13.5265 12.2565 13.2815C12.2775 13.0295 12.2985 12.802 12.3195 12.599H12.2775L11.742 14.258L10.4505 17.8175H9.80997L8.51847 14.258L7.98297 12.599H7.94097C7.96197 12.802 7.97947 13.0295 7.99347 13.2815C8.01447 13.5265 8.03197 13.775 8.04597 14.027C8.05997 14.279 8.06697 14.5065 8.06697 14.7095V18.5H7.26897ZM14.5829 18.5V11.612H15.4544V17.7545H18.4679V18.5H14.5829Z" fill="black" />
  </symbol>
  <symbol id="fill" fill="none" viewBox="0 0 24 24">
    <path d="M11.4873 4.7521L19.9726 13.2374L12.1944 21.0156C11.8039 21.4061 11.1707 21.4061 10.7802 21.0156L3.70915 13.9445C3.31863 13.554 3.31863 12.9208 3.70915 12.5303L11.4873 4.7521ZM11.4873 4.7521L9.01245 2.27722" />
    <circle cx="7.95178" cy="13.2373" r="0.5" transform="rotate(45 7.95178 13.2373)" />
    <circle cx="15.0228" cy="13.2373" r="0.5" transform="rotate(45 15.0228 13.2373)" />
    <circle cx="11.4873" cy="16.7729" r="0.5" transform="rotate(45 11.4873 16.7729)" />
    <path d="M22 20C22 20.2761 21.7761 20.5 21.5 20.5C21.2239 20.5 21 20.2761 21 20C21 19.7868 21.0998 19.0849 21.2761 18.4213C21.3461 18.1582 21.4225 17.9229 21.5 17.7406C21.5775 17.9229 21.6539 18.1582 21.7239 18.4213C21.9002 19.0849 22 19.7868 22 20ZM21.6638 17.448C21.6638 17.448 21.6632 17.4486 21.6619 17.4497C21.6632 17.4485 21.6638 17.4479 21.6638 17.448ZM21.3381 17.4497C21.3368 17.4486 21.3362 17.448 21.3362 17.448C21.3362 17.4479 21.3368 17.4485 21.3381 17.4497Z" />
  </symbol>
  <symbol id="filter" fill="none" viewBox="0 0 24 24">
    <path d="M21.0478 1H2.95223C2.13713 1 1.66443 1.92282 2.1407 2.5843L9.81153 13.2382C9.93407 13.4084 10 13.6128 10 13.8225V21.5858C10 22.4767 11.0771 22.9229 11.7071 22.2929L13.7071 20.2929C13.8946 20.1054 14 19.851 14 19.5858V13.8225C14 13.6128 14.0659 13.4084 14.1885 13.2382L21.8593 2.5843C22.3356 1.92282 21.8629 1 21.0478 1Z" />
  </symbol>
  <symbol id="itemPropirties" fill="none" viewBox="0 0 24 24">
    <path d="M3.30598 3.10799V15.5H2.47998V2.06799H11.71V15.5H10.884V3.10799V2.60799H10.384H3.80598H3.30598V3.10799Z" />
    <path d="M16.6886 22.25L14.8605 19L16.6886 15.75H20.3114L22.1395 19L20.3114 22.25H16.6886Z" stroke-width="1.5" />
    <circle cx="18.5" cy="19" r="2.5" />
  </symbol>
  <symbol id="minus" fill="none" viewBox="0 0 24 24">
    <rect x="4.5" y="11.5" width="15" height="1" rx="0.5" />
  </symbol>
  <symbol id="paste" fill="none" viewBox="0 0 24 24">
    <path d="M5 23H19C20.1046 23 21 22.1046 21 21V3C21 1.89543 20.1046 1 19 1H5C3.89543 1 3 1.89543 3 3V21C3 22.1046 3.89543 23 5 23Z" />
    <rect x="6.25" y="5.75" width="11.5" height="0.5" rx="0.25" stroke-width="0.5" />
    <rect x="6.25" y="11.75" width="11.5" height="0.5" rx="0.25" stroke-width="0.5" />
    <rect x="6.25" y="17.75" width="11.5" height="0.5" rx="0.25" stroke-width="0.5" />
  </symbol>
  <symbol id="redo" fill="none" viewBox="0 0 24 24">
    <path d="M18.1289 14C16.6562 11.0366 13.5981 9 10.0644 9C6.5307 9 3.47265 11.0366 1.99995 14" stroke-linecap="round" />
    <path d="M15.2698 14.2679L18.0395 14.6898C18.2707 14.725 18.4954 14.5952 18.5805 14.3774L19.6 11.7679" stroke-linecap="round" />
  </symbol>
  <symbol id="resources" fill="none" viewBox="0 0 24 24">
    <rect x="1.5" y="16.5" width="5" height="3" />
    <rect x="9.5" y="16.5" width="5" height="3" />
    <rect x="17.5" y="16.5" width="5" height="3" />
    <rect x="13.5" y="10.5" width="5" height="3" />
    <rect x="5.5" y="10.5" width="5" height="3" />
    <rect x="9.5" y="4.5" width="5" height="3" />
  </symbol>
  <symbol id="search" fill="none" viewBox="0 0 24 24">
    <circle cx="15.9497" cy="8" r="7.5" />
    <rect x="1.35355" y="22.389" width="12.8932" height="0.5" rx="0.25" transform="rotate(-45 1.35355 22.389)" stroke-width="0.5" />
  </symbol>
  <symbol id="settings" fill="none" viewBox="0 0 24 24">
    <circle cx="12" cy="12" r="4.5" />
    <path d="M6.29016 22L0.575876 12L6.29016 2H17.7098L23.4241 12L17.7098 22H6.29016Z" />
  </symbol>
  <symbol id="sync" fill="none" viewBox="0 0 24 24">
    <path d="M3.93555 8C5.40825 5.03656 8.46631 3 12 3C15.5337 3 18.5918 5.03656 20.0645 8M3.93555 16C5.40825 18.9634 8.46631 21 12 21C15.5337 21 18.5918 18.9634 20.0645 16" stroke-linecap="round" />
    <path d="M2.26985 5.76795L3.28935 8.37743C3.37445 8.59525 3.59916 8.72498 3.83035 8.68977L6.59998 8.26795" stroke-linecap="round" />
    <path d="M21.7302 18.2321L20.7106 15.6226C20.6255 15.4048 20.4008 15.275 20.1696 15.3102L17.4 15.7321" stroke-linecap="round" />
  </symbol>
  <symbol id="undo" fill="none" viewBox="0 0 24 24">
    <path d="M4.33557 14C5.80827 11.0366 8.86633 9 12.4001 9C15.9338 9 18.9918 11.0366 20.4645 14" stroke-linecap="round" />
    <path d="M2.66987 11.7679L3.68937 14.3774C3.77448 14.5952 3.99919 14.725 4.23038 14.6898L7 14.2679" stroke-linecap="round" />
  </symbol>
  <symbol id="user" fill="none" viewBox="0 0 24 24">
    <g clip-path="url(#clip0_156_29)">
      <path d="M12 13C14.2091 13 16 11.2091 16 9C16 6.79086 14.2091 5 12 5C9.79086 5 8 6.79086 8 9C8 11.2091 9.79086 13 12 13Z" stroke-miterlimit="10" />
      <path d="M2.9111 18.2154C1.66865 16.3986 1 14.2977 1 12C1 5.97614 5.97614 1 12 1C18.0239 1 23 5.97614 23 12C23 14.2976 22.3314 16.3985 21.0889 18.2153C19.0749 21.0912 15.8233 23 12 23C8.17677 23 4.92516 21.0913 2.9111 18.2154Z" stroke-miterlimit="10" />
      <path d="M4 19C5.76842 16 8.63158 14 12 14C15.3684 14 18.2316 16 20 19" stroke-miterlimit="10" />
    </g>
    <defs>
      <clipPath id="clip0_156_29">
        <rect width="24" height="24" fill="white" />
      </clipPath>
    </defs>
  </symbol>
</svg>